<svg xmlns="http://www.w3.org/2000/svg" viewBox="0 0 512 512" style="height: 512px; width: 512px;"><defs><radialGradient id="sbed-hot-surface-gradient-0"><stop offset="0%" stop-color="#ff00ec" stop-opacity="1"></stop><stop offset="100%" stop-color="#dd00ff" stop-opacity="0"></stop></radialGradient></defs><g class="" transform="translate(0,0)" style=""><path d="M106 53.5c45 150-45 150 0 300h60c-45-150 45-150 0-300h-60zm120 0c45 150-45 150 0 300h60c-45-150 45-150 0-300h-60zm120 0c45 150-45 150 0 300h60c-45-150 45-150 0-300h-60zm-270 315c-15 0-30 30-30 30-30 0-30 0-30 30v30h480v-30c0-30 0-30-30-30 0 0-15-30-30-30-30 0-30 45-60 45s-30-45-60-45-30 45-60 45-30-45-60-45-30 45-60 45-30-45-60-45z" fill="#fff" fill-opacity="1" transform="translate(25.6, 25.6) scale(0.9, 0.9) rotate(0, 256, 256) skewX(0) skewY(0)"></path></g></svg>