<?xml version="1.0" encoding="UTF-8"?>
<svg id="hearts_Image" data-name="hearts Image" xmlns="http://www.w3.org/2000/svg" viewBox="0 0 420.62 162.12">
  <path d="M399.62,0c10.18,1.36,18.57,5.97,20.5,17.02,4.12,23.61-18.23,35.87-35.43,46.28l-26.69,16.15c-11.86,7.18-22.06,16.31-29.38,27.89-1.77-11.85-6.77-22.23-15.64-30.19-3.41-3.06-6.56-5.88-9.6-9.55-1.59-2.12-4.9-5.33-5.41-7.83-3.17-15.58,7.85-40.02,21.52-46.91,7.36-3.71,17.56-4.42,24.9-.58,5.03,2.63,6.56,8.99,9.46,13.67,12.51-14.88,22.12-22.65,40.28-25.94h5.47Z"/>
  <path d="M0,162.12l1.03-2.14c4.12-8.69.46-16.11,1.51-21.01,1.24-5.77,4.73-9.56,9.47-11.72,1.13-.52,4.17-.92,5.22-.3,1.41.84,2.14,2.75,2.28,4.69,5.72-4.97,12.88-9.94,21.25-5.65-4.31,5.45-5.69,10.67-2.77,17.44-11.01,8.66-25.89,9.52-38,18.68Z"/>
  <path d="M277.11,110.74c-12.67-10.99-29.93-10.03-40.67-16.3-7.45-4.34-10.97-13.59-11.97-21.57-.86-6.88,3.26-12.31,9.51-14.45,10.62-3.64,21.75-.03,29.66,8.34,1.64-9.51,5.8-17.24,14.04-20.99,5.39-2.45,11.13-3.3,16.32-.64-3.49,8.91-1.47,17.88,3.74,24.42l5.36,6.75-15.94,17.05c-4.51,4.82-8.57,9.62-10.05,17.38Z"/>
  <path d="M229.69,108.79l-33.66,14.57c-7.94,3.44-13.67,8.85-19.9,15.17,2.53-23.15-17.07-31.47-10.58-44.51,3.17-6.37,6.53-12.53,11.86-17.3,5.93-5.3,14.66-7.64,21.81-3.15,2.23,1.4,3.47,6.41,4.45,9,4.77-3.65,9.58-7.12,15.73-10.66,1.18,14.28,8.56,24.39,22.1,30.16l-11.82,6.72Z"/>
  <path d="M138.26,132.87l-15.71-7.85c-5.52-2.76-9.99-22.13-.8-27.92,6.89-4.34,15.17-1.17,19.82,5.48,3.29-9.91,10.92-19.3,22.07-14.92-4.27,8.51-3.99,17.32,1.37,26.29l-13.57,14.16c-2.94,3.06-4.68,7.34-6.16,11.45-2.08-2.47-4.37-5.38-7.03-6.71Z"/>
  <path d="M75.29,140.58c-.77-7.04-3.49-9.44-2.98-14.27,1.33-12.58,14.87-30.38,24.59-23.13,3.3,2.46,2.62,5.46,2.79,10.23,4.71-4.16,8.41-7.72,13.63-9.7-2.03,7.89-.48,13.51,2.91,19.81,1.56,2.9,4.52,4.48,8.35,7.12-4.17,2.26-8.8,4.57-13.36,6.25l-21.75,8.04c-5.28,1.95-8.86,5.16-12.69,8.74"/>
  <path d="M55.15,155.6c-2.08-4.22-4.65-7.25-8.24-9.5l-5.66-3.56c-3.03-6.89.18-19.91,8.56-20.89,3.73-.44,6.13,1.05,8.44,4.06,2.99-6.22,7.19-11.26,14.29-12.16-4.01,7.48-4.51,15.06-.92,22.87-8.11,8.26-10.92,7.64-16.47,19.18Z"/>
</svg>