<?xml version="1.0" encoding="UTF-8"?>
<svg id="statusbar_Image" data-name="statusbar Image" xmlns="http://www.w3.org/2000/svg" viewBox="0 0 831.39 183.14">
  <path d="M600.35,179.28l-6.84,3.86,24.99-61.14c1.21-3.18,3.46-5.58-1.59-8.8l-41.65-28.04,80.18-22.58L699.28,0l27.54,45.32c35.05-1.64,64.33-6.48,104.58-10.28l-83.88,61.17,11.52,67.53-79.24-24.83-79.45,40.36Z"/>
  <path d="M0,122.23c17.75-5.15,31.76-8.22,31.76-8.22,0,0,6.44-5.33,14.02-14.07l11.92-13.3,6.33,17.42c15.57-.39,21.72-.64,37.01-.83l-38.54,27.14,5.85,28.99-26.32-10.07-22.44,10.44c-2.38,1.06-9.27,3.83-12.75,5.24l5.56-13.98,5.48-13.34"/>
  <path d="M599.17,72.58l-36.81,11.48,45.99,33.55-60.83,8.35c-26.43,19.33-35.94,31.08-64.2,52.91,1.12-17.19,2.96-42.84,4.55-59.93l-23.59-2.8c-11.37-1.43-17.54-1.92-28.94-3.76l65.1-31.54,23.09-52.6,37.31,28.88c5.95-1.46,56.9-15.07,61.33-15.78"/>
  <path d="M430.74,108.96l7.62,56.07-50.98-19.18-60.33,28.4c6.66-16.8,12.74-28.58,21.44-45.39l-29.28-23.55c36.85-11.67,54.86-17.94,54.86-17.94,0,0,11.48-15.04,33.51-45.72,6.53,11.78,11.29,21.44,18.38,33.56l68.99-1.26"/>
  <path d="M220.79,121.56l44.08-24.47,15.12-29.48,18.76,17.96,55.43.33c-30.68,14.28-42.31,18.71-42.31,18.71l27.52,24.78-22.28,4.63-20.57,3.64-40.4,34.42c.31-14.35,3.24-25.59,4-38.87"/>
  <path d="M230.12,154.88l-43.61-9.43-46.9,26.58c8.42-17.92,13.72-27.56,21.02-43.4l-21.89-14.28c27.34-9.75,41.02-14.67,40.97-15.39,0,0,13.27-16.23,26.58-32.67l10.87,23.01c17.61.44,22.87-.12,46.23-.09l-51.34,33.08,17.28,7.66.78,24.92Z"/>
  <path d="M154.53,135.45c-9.13,1.68-31.92,4.78-31.92,4.78l-32.5,27.46,3.14-29.62-28.37-4.71,40.61-24.19c3.17-8.08,7-17.5,10.92-25.05l14.85,12.23,30.49-4.64q-11.06,9.05-18.23,14.12l-11.24,7.68"/>
</svg>